<?xml version="1.0" standalone="no"?>
<!DOCTYPE svg PUBLIC "-//W3C//DTD SVG 20010904//EN"
 "http://www.w3.org/TR/2001/REC-SVG-20010904/DTD/svg10.dtd">
<svg version="1.0" xmlns="http://www.w3.org/2000/svg"
 width="210.000000pt" height="172.000000pt" viewBox="0 0 210.000000 172.000000"
 preserveAspectRatio="xMidYMid meet">
<metadata>
Created by potrace 1.16, written by Peter Selinger 2001-2019
</metadata>
<g transform="translate(0.000000,172.000000) scale(0.100000,-0.100000)"
fill="#000000" stroke="none">
<path d="M400 1652 c0 -10 -208 -1467 -215 -1509 l-6 -33 76 0 c47 0 75 4 75
11 0 17 140 1040 146 1074 6 27 14 15 85 -125 l78 -155 3 150 3 150 47 -90 47
-90 0 134 1 134 153 -6 c172 -7 247 -23 325 -70 57 -34 97 -79 132 -147 l23
-44 29 57 29 58 -20 33 c-34 55 -118 126 -185 156 -90 41 -174 53 -391 54
l-190 1 -5 -83 -5 -83 -107 216 c-93 185 -128 242 -128 207z"/>
<path d="M1561 1409 l-123 -252 26 -78 c14 -43 26 -89 27 -101 0 -14 27 29 66
107 37 72 68 123 70 115 1 -8 34 -247 73 -530 39 -283 73 -525 75 -537 5 -21
11 -23 79 -23 l73 0 -111 772 c-63 431 -116 773 -122 775 -6 2 -66 -110 -133
-248z"/>
<path d="M740 860 l-1 -155 -45 88 c-24 48 -46 87 -49 87 -3 0 -5 -110 -5
-245 l0 -245 125 0 125 0 -22 45 c-22 45 -22 45 -75 45 l-53 0 1 108 0 107 55
-107 54 -108 63 0 c34 0 67 4 73 8 7 5 -32 95 -117 267 l-127 260 -2 -155z"/>
<path d="M1242 758 c-67 -138 -120 -253 -117 -256 2 -3 34 9 69 27 116 57 183
162 193 303 6 71 -4 178 -16 178 -4 0 -62 -113 -129 -252z"/>
<path d="M1362 684 c-68 -136 -121 -248 -119 -250 9 -10 119 81 152 125 60 83
87 162 93 274 2 53 3 97 1 97 -2 0 -60 -111 -127 -246z"/>
<path d="M1017 484 c-3 -4 3 -24 14 -46 11 -22 18 -43 14 -46 -3 -4 -37 -8
-75 -10 l-69 -4 67 -134 c53 -106 71 -134 87 -134 16 0 36 31 98 156 70 140
76 156 55 150 -50 -15 -138 -29 -144 -24 -3 3 4 24 15 47 12 22 21 43 21 46 0
7 -75 6 -83 -1z"/>
</g>
</svg>
